HIERARCHY
ROOT Hips
{
 OFFSET 0.000000 0.000000 0.000000
 CHANNELS 6 Xposition Yposition Zposition Yrotation Xrotation Zrotation
 JOINT Chest
 {
  OFFSET 0.000000 9.585900 0.002600
  CHANNELS 3 Yrotation Xrotation Zrotation
  JOINT Chest2
  {
   OFFSET 0.000000 9.601200 -0.005300
   CHANNELS 3 Yrotation Xrotation Zrotation
   JOINT Chest3
   {
    OFFSET 0.000000 9.561800 0.000000
    CHANNELS 3 Yrotation Xrotation Zrotation
    JOINT Chest4
    {
     OFFSET 0.000000 9.552100 0.000000
     CHANNELS 3 Yrotation Xrotation Zrotation
     JOINT Neck
     {
      OFFSET 0.000000 14.453000 0.000000
      CHANNELS 3 Yrotation Xrotation Zrotation
      JOINT Head
      {
       OFFSET 0.000000 8.936500 -0.011300
       CHANNELS 3 Yrotation Xrotation Zrotation
       End Site
       {
        OFFSET 0.000000 17.073600 -0.006000
       }
      }
     }
     JOINT RightCollar
     {
      OFFSET -2.921100 9.558500 0.000000
      CHANNELS 3 Yrotation Xrotation Zrotation
      JOINT RightShoulder
      {
       OFFSET -13.519700 0.000000 0.000000
       CHANNELS 3 Yrotation Xrotation Zrotation
       JOINT RightElbow
       {
        OFFSET 0.000000 -29.696600 0.000000
        CHANNELS 3 Yrotation Xrotation Zrotation
        JOINT RightWrist
        {
         OFFSET 0.000000 -24.004700 0.000000
         CHANNELS 3 Yrotation Xrotation Zrotation
         End Site
         {
          OFFSET 0.000000 -17.728500 0.000000
         }
        }
       }
      }
     }
     JOINT LeftCollar
     {
      OFFSET 2.921100 9.558500 0.000000
      CHANNELS 3 Yrotation Xrotation Zrotation
      JOINT LeftShoulder
      {
       OFFSET 13.519700 0.000000 0.000000
       CHANNELS 3 Yrotation Xrotation Zrotation
       JOINT LeftElbow
       {
        OFFSET 0.000000 -29.696600 0.000000
        CHANNELS 3 Yrotation Xrotation Zrotation
        JOINT LeftWrist
        {
         OFFSET 0.000000 -24.004700 0.000000
         CHANNELS 3 Yrotation Xrotation Zrotation
         End Site
         {
          OFFSET 0.000000 -17.728500 0.000000
         }
        }
       }
      }
     }
    }
   }
  }
 }
 JOINT RightHip
 {
  OFFSET -7.771700 -0.012900 -0.001300
  CHANNELS 3 Yrotation Xrotation Zrotation
  JOINT RightKnee
  {
   OFFSET 0.000000 -40.869800 0.001200
   CHANNELS 3 Yrotation Xrotation Zrotation
   JOINT RightAnkle
   {
    OFFSET 0.000000 -39.717900 0.002100
    CHANNELS 3 Yrotation Xrotation Zrotation
    JOINT RightToe
    {
     OFFSET 0.000000 -4.965400 11.033500
     CHANNELS 3 Yrotation Xrotation Zrotation
     End Site
     {
      OFFSET 0.000000 -1.423100 5.872300
     }
    }
   }
  }
 }
 JOINT LeftHip
 {
  OFFSET 7.771700 -0.012900 -0.001300
  CHANNELS 3 Yrotation Xrotation Zrotation
  JOINT LeftKnee
  {
   OFFSET 0.000000 -40.869800 0.001200
   CHANNELS 3 Yrotation Xrotation Zrotation
   JOINT LeftAnkle
   {
    OFFSET 0.000000 -39.717900 0.002100
    CHANNELS 3 Yrotation Xrotation Zrotation
    JOINT LeftToe
    {
     OFFSET 0.000000 -4.965400 11.033500
     CHANNELS 3 Yrotation Xrotation Zrotation
     End Site
     {
      OFFSET 0.000000 -1.423100 5.872300
     }
    }
   }
  }
 }
}
MOTION
Frames: 11
Frame Time: 0.008333
15.926345 49.551472 54.322842 172.676609 -33.450279 -7.481704 6.904028 19.070397 6.482744 0.805433 2.476996 0.572716 1.364647 4.172963 1.045833 6.017956 16.428735 4.772710 -2.477573 16.087309 2.220073 -5.388121 -5.630955 5.064440 -5.107802 -3.186078 -5.210350 4.917949 -5.810712 3.477710 43.282681 -79.421614 -55.292684 0.520281 -5.748112 2.777931 -7.848408 -2.019029 1.108180 3.275515 -2.302484 -1.787146 -95.148644 -66.694501 105.872182 13.541534 -10.461472 -5.509844 -0.548616 -46.704486 11.511844 -106.608837 83.831235 -95.109217 -2.723019 -12.231390 -2.768568 0.027717 0.948648 0.164970 -10.062386 -50.903658 17.632244 -155.185856 80.351161 -162.330138 0.719912 -16.849147 7.529882 -0.196855 -0.859564 -0.054885
15.943170 49.562671 54.306193 172.688114 -33.373519 -7.449259 6.878890 19.025272 6.453546 0.808555 2.501383 0.587460 1.355988 4.147059 1.030086 6.007394 16.428859 4.771166 -2.468055 16.177877 2.261417 -5.381420 -5.569876 5.068404 -5.096034 -3.186118 -5.218976 4.902289 -5.807603 3.437236 43.811093 -79.432851 -55.786464 0.464862 -5.687613 2.771299 -7.864188 -2.021556 1.102885 3.269343 -2.307276 -1.809109 -95.280324 -66.651063 106.043708 13.517807 -10.404796 -5.571757 -0.707985 -46.771494 11.577186 -107.075272 83.849287 -95.662355 -2.691043 -12.318837 -2.831134 0.054905 0.904385 0.150390 -10.046403 -50.981557 17.604874 -155.247875 80.341739 -162.392739 0.713092 -16.874557 7.528961 -0.215731 -0.846075 -0.061328
15.956414 49.570335 54.294072 172.663152 -33.286250 -7.391406 6.892461 18.998750 6.449975 0.813595 2.535636 0.615410 1.334535 4.079008 0.972238 5.997280 16.429024 4.769443 -2.459091 16.261803 2.300743 -5.376721 -5.517751 5.068596 -5.084130 -3.184284 -5.229076 4.904188 -5.804162 3.397595 44.290537 -79.452355 -56.255463 0.486972 -5.654721 2.760681 -7.882266 -2.023855 1.096123 3.262384 -2.309376 -1.828112 -95.407763 -66.585088 106.221293 13.471472 -10.322941 -5.689503 -0.779189 -46.877163 11.595577 -107.534426 83.852301 -96.187233 -2.646040 -12.356045 -2.847512 0.039208 0.842449 0.111531 -9.953330 -51.080644 17.524088 -155.378488 80.339909 -162.489215 0.716362 -16.909549 7.518853 -0.238659 -0.824632 -0.061807
15.967265 49.579850 54.279657 172.673999 -33.231383 -7.351018 6.877899 19.004565 6.447102 0.803533 2.503055 0.587040 1.341679 4.142056 1.028528 5.960479 16.413593 4.743013 -2.458727 16.275543 2.285186 -5.374105 -5.455058 5.072764 -5.037222 -3.162710 -5.262636 4.889381 -5.859245 3.337590 44.653160 -79.475366 -56.628935 0.586294 -5.679727 2.745821 -7.915336 -2.056635 1.060023 3.265506 -2.307869 -1.860936 -95.528573 -66.456111 106.420494 13.399168 -10.222384 -5.864161 -0.812061 -46.951473 11.559323 -108.151408 83.867515 -96.806012 -2.667486 -12.399745 -2.869395 0.029856 0.798779 0.083333 -9.902442 -51.144108 17.452254 -155.456980 80.332593 -162.553941 0.724164 -16.930255 7.507510 -0.252102 -0.812300 -0.066054
15.980072 49.591030 54.265879 172.691269 -33.196861 -7.339384 6.865772 19.016509 6.462290 0.803612 2.514005 0.596461 1.334947 4.132534 1.019308 5.943243 16.395224 4.720122 -2.454441 16.325165 2.305558 -5.375909 -5.406799 5.069680 -5.014648 -3.120304 -5.267951 4.889595 -5.901275 3.295357 45.128938 -79.494905 -57.115194 0.629353 -5.656018 2.740801 -7.947004 -2.039215 1.057062 3.261727 -2.316986 -1.887001 -95.605483 -66.254302 106.593154 13.294437 -10.099919 -6.097098 -0.827277 -46.997420 11.537524 -108.557579 83.855317 -97.186187 -2.704349 -12.451537 -2.870303 0.012676 0.780256 0.049843 -9.895348 -51.181489 17.429057 -155.483050 80.319312 -162.576707 0.740708 -16.950171 7.488824 -0.273850 -0.803296 -0.063296
15.989374 49.603370 54.252150 172.697713 -33.179315 -7.311236 6.861516 19.045845 6.466290 0.804002 2.525251 0.606275 1.326341 4.112193 1.001691 5.933217 16.408335 4.731616 -2.457222 16.345259 2.297476 -5.382180 -5.370902 5.059345 -5.003239 -3.142091 -5.302102 4.887862 -5.918702 3.280232 45.611823 -79.500952 -57.596364 0.614998 -5.599026 2.739705 -7.970314 -2.049391 1.031378 3.231521 -2.334938 -1.905869 -95.600963 -65.954968 106.729351 13.144582 -9.951351 -6.399840 -0.791172 -47.039359 11.454188 -109.117645 83.827750 -97.674410 -2.716651 -12.474456 -2.890701 -0.000786 0.736564 0.019813 -9.843612 -51.205908 17.369674 -155.499900 80.307334 -162.581236 0.750244 -16.964951 7.490418 -0.279368 -0.797786 -0.087683
15.999846 49.613796 54.245250 172.705911 -33.133981 -7.302687 6.858302 19.045043 6.484587 0.799930 2.515461 0.598262 1.319137 4.091216 0.985379 5.940733 16.463923 4.784639 -2.468309 16.334885 2.266560 -5.391214 -5.384422 5.043783 -4.977229 -3.153604 -5.337413 4.876993 -5.944636 3.227505 45.737243 -79.540567 -57.739961 0.637207 -5.590973 2.739355 -7.987115 -2.024786 0.995994 3.226808 -2.438509 -1.926022 -95.515898 -65.535714 106.781689 12.936004 -9.775401 -6.791364 -0.731787 -47.102401 11.364295 -109.506651 83.832179 -97.989942 -2.639340 -12.503168 -2.910174 -0.009750 0.731239 -0.002772 -9.837148 -51.255473 17.361986 -155.471357 80.296853 -162.552177 0.760232 -16.980582 7.492413 -0.295951 -0.787816 -0.095515
16.019646 49.626923 54.240600 172.735870 -33.100540 -7.365972 6.852138 19.030016 6.548697 0.796610 2.505444 0.590073 1.326916 4.123438 1.010783 5.926745 16.445025 4.766515 -2.463877 16.365588 2.273880 -5.403264 -5.396311 5.027910 -4.953292 -3.128655 -5.335476 4.846758 -5.924259 3.154142 46.346551 -79.628508 -58.339308 0.739853 -5.477766 2.744903 -7.991671 -1.987489 0.995198 3.215808 -2.508102 -1.942657 -95.353652 -64.945412 106.796846 12.660419 -9.569098 -7.285060 -0.650131 -47.130177 11.293304 -109.630412 83.849083 -97.981097 -2.499996 -12.606398 -2.932953 -0.036681 0.814128 -0.026784 -9.924299 -51.283090 17.461039 -155.386330 80.280318 -162.469741 0.800253 -16.972933 7.494549 -0.330858 -0.803327 -0.111006
16.035073 49.639972 54.236620 172.760011 -33.071913 -7.400005 6.842542 19.021581 6.586295 0.802305 2.526629 0.607759 1.326188 4.125095 1.012500 5.923489 16.447721 4.772649 -2.474643 16.367451 2.255130 -5.425032 -5.373899 5.008379 -4.959907 -3.162831 -5.368458 4.819139 -5.896329 3.131491 47.602325 -79.677347 -59.565837 0.783268 -5.217021 2.763637 -8.002948 -1.966181 0.979964 3.210035 -2.580369 -1.966040 -95.130371 -64.149700 106.800784 12.307238 -9.321907 -7.896241 -0.592102 -47.146540 11.253763 -109.568735 83.846927 -97.838605 -2.447725 -12.694338 -2.932772 -0.062862 0.888183 -0.045099 -9.978862 -51.307839 17.511433 -155.349535 80.272339 -162.436617 0.820442 -16.987169 7.497607 -0.343909 -0.793145 -0.125206
16.048116 49.653590 54.232115 172.767904 -33.059108 -7.409237 6.846433 19.041974 6.625794 0.802725 2.528317 0.608880 1.326944 4.127551 1.014363 5.925166 16.451544 4.778684 -2.486796 16.367275 2.233998 -5.447496 -5.356885 4.985037 -4.943949 -3.157250 -5.381825 4.759978 -5.894143 3.088265 48.724554 -79.710275 -60.661953 0.845039 -4.949093 2.798704 -8.018468 -1.973186 0.956857 3.201038 -2.638321 -1.982412 -94.809249 -63.142892 106.768232 11.869614 -9.014095 -8.654079 -0.572145 -47.154499 11.240489 -109.634993 83.841729 -97.853824 -2.445213 -12.754957 -2.958337 -0.058449 0.930990 -0.045178 -9.989904 -51.317896 17.544704 -155.281816 80.262401 -162.390166 0.835096 -16.998578 7.517041 -0.369798 -0.789945 -0.135520
16.062085 49.667932 54.227057 172.796561 -33.061968 -7.434857 6.840960 19.070966 6.670420 0.803890 2.530772 0.610460 1.333317 4.153276 1.037931 5.919243 16.436848 4.763120 -2.508762 16.364866 2.213837 -5.466418 -5.343454 4.960023 -4.928505 -3.145226 -5.390099 4.701915 -5.885520 3.044144 49.903285 -79.727325 -61.823393 0.948455 -4.624061 2.848712 -8.040793 -1.974050 0.937484 3.181413 -2.698862 -2.005917 -94.465272 -61.944026 106.781119 11.339455 -8.625892 -9.594925 -0.580229 -47.141857 11.233121 -109.794040 83.856969 -97.938888 -2.500917 -12.815357 -3.026552 0.002195 0.957313 -0.016522 -10.021482 -51.312008 17.582419 -155.205292 80.251792 -162.327034 0.837989 -17.003305 7.520282 -0.384049 -0.788834 -0.134103
